<svg xmlns="http://www.w3.org/2000/svg" viewBox="0 0 48 48" width="48" height="48" role="img" aria-label="CONVERGÊNCIA">
  <title>CONVERGÊNCIA</title>
  <defs>
    <filter id="gg" x="-40%" y="-40%" width="180%" height="180%">
      <feGaussianBlur in="SourceGraphic" stdDeviation="3.5" result="b"/>
      <feColorMatrix in="b" type="matrix"
        values="0 0 0 0 0.2  0 1 0 0 1  0 0 0 0 0.1  0 0 0 1 0" result="c"/>
      <feMerge><feMergeNode in="c"/><feMergeNode in="SourceGraphic"/></feMerge>
    </filter>
    <linearGradient id="conv-h" x1="0" y1="0" x2="1" y2="0">
      <stop offset="0%" stop-color="#2D7DFF"/>
      <stop offset="100%" stop-color="#39FF14"/>
    </linearGradient>
  </defs>
  <!-- Background disc -->
  <circle cx="24" cy="24" r="23" fill="#1A1C20" stroke="#39FF14" stroke-width="1.2" stroke-opacity="0.5"/>

  <!-- Converging arrows: 4 arrows pointing to center -->
  <!-- Top-left arrow -->
  <line x1="10" y1="10" x2="21" y2="21" stroke="url(#conv-h)" stroke-width="2" stroke-linecap="round"/>
  <polygon points="21,21 14,18 18,14" fill="#39FF14" opacity="0.8"/>

  <!-- Top-right arrow -->
  <line x1="38" y1="10" x2="27" y2="21" stroke="url(#conv-h)" stroke-width="2" stroke-linecap="round"/>
  <polygon points="27,21 30,14 34,18" fill="#39FF14" opacity="0.8"/>

  <!-- Bottom-left arrow -->
  <line x1="10" y1="38" x2="21" y2="27" stroke="url(#conv-h)" stroke-width="2" stroke-linecap="round"/>
  <polygon points="21,27 14,30 18,34" fill="#2D7DFF" opacity="0.8"/>

  <!-- Bottom-right arrow -->
  <line x1="38" y1="38" x2="27" y2="27" stroke="url(#conv-h)" stroke-width="2" stroke-linecap="round"/>
  <polygon points="27,27 30,34 34,30" fill="#2D7DFF" opacity="0.8"/>

  <!-- Center convergence burst -->
  <circle cx="24" cy="24" r="6" fill="#1A1C20" stroke="#39FF14" stroke-width="1.5"/>
  <circle cx="24" cy="24" r="3.5" fill="#39FF14" filter="url(#gg)"/>

  <!-- Label -->
  <text x="24" y="46" font-family="Arial,sans-serif" font-size="5" font-weight="800"
        fill="#39FF14" text-anchor="middle" letter-spacing="1">CONVERGÊNCIA</text>
</svg>
